PathFileType	4	(X/Y/Z)	C:/Users/beibeiliu/ov580/test_trc\sequence.23_training_dense_left.trc
DataRate	CameraRate	NumFrames	NumMarkers	Units	OrigDataRate	OrigDataStartFrame	OrigNumFrames
120	120	22	19	mm	120	1	59
Frame#	Time	ThumbCMC			ThumbMCP			ThumbIP			ThumbTip			IndexMCP			IndexPIP			IndexTip			MiddleMCP			MiddlePIP			MiddleTip			RingMCP			RingPIP			RingTip			PinkyMCP			PinkyPIP			PinkyTip			BackHand1			BackHand2			BackHand3	
		X0	Y0	Z0	X1	Y1	Z1	X2	Y2	Z2	X3	Y3	Z3	X4	Y4	Z4	X5	Y5	Z5	X6	Y6	Z6	X7	Y7	Z7	X8	Y8	Z8	X9	Y9	Z9	X10	Y10	Z10	X11	Y11	Z11	X12	Y12	Z12	X13	Y13	Z13	X14	Y14	Z14	X15	Y15	Z15	X16	Y16	Z16	X17	Y17	Z17	X18	Y18	Z18	
0	0	-164.642	49.4091	135.253	-152.363	50.1134	108.286	-143.053	61.9735	83.6649	-141.077	71.1814	59.1643	-173.502	68.4017	62.8417	-162.288	55.6403	43.0067	-153.362	35.6525	19.7345	-188.542	61.2869	54.1344	-179.909	47.3147	32.188	-169.922	28.4118	10.805	-203.792	51.5026	51.362	-198.347	41.3065	33.5319	-189.49	27.6073	11.7155	-223.205	40.0076	57.4045	-216.484	32.3677	41.886	-207.525	28.9388	17.7225	-223.47	62.5165	104.889	-226.807	51.9087	139.062	-197.533	69.8703	127.638	
1	0.00833333	-158.778	37.5925	136.547	-143.135	33.9346	112.182	-136.934	38.353	87.5887	-127.943	43.2065	62.7162	-159.954	45.3527	63.3029	-148.784	25.3233	45.1175	-141.192	0.0714976	32.2452	-173.668	37.585	54.4389	-166.326	21.7537	39.7179	-156.537	-4.98715	22.5361	-196.197	28.7473	54.1878	-184.172	14.4112	39.2187	-172.796	-7.86923	18.976	-212.053	22.8829	64.02	-202.805	6.51722	42.415	-196.524	-2.70069	24.7775	-215.553	49.073	106.352	-218.16	47.9848	136.074	-186.479	59.5077	124.845	
2	0.0166667	-153.347	29.8309	143.465	-137.277	21.75	122.159	-123.607	23.7171	92.3892	-117.546	23.211	75.2467	-141.252	26.3709	67.7736	-135.481	5.54785	56.8299	-124.434	-20.0002	51.9312	-163.859	19.5928	61.6203	-151.508	-2.21937	49.8586	-139.052	-28.6555	41.7649	-179.7	12.4875	61.9764	-167.81	-12.5314	47.8814	-157.747	-35.8066	38.1933	-200.706	4.34692	66.1517	-189.992	-15.3038	53.5653	-177.71	-31.096	41.2927	-207.59	38.8372	104.616	-210.824	40.4251	134.78	-181.253	50.2966	127.049	
3	0.025	-146.751	35.7915	144.826	-131.876	24.8162	127.182	-117.182	23.4866	103.537	-106.537	21.6239	87.0071	-133.008	20.4944	75.7084	-116.017	-2.61534	70.1216	-114.045	-28.2365	73.4698	-150.286	12.5976	70.9698	-134.984	-13.9134	63.2344	-122.568	-40.7519	63.4168	-164.619	0.190252	68.6857	-151.982	-23.9872	62.817	-138.254	-43.2317	61.552	-184.843	-4.83827	75.7863	-170.04	-25.2477	66.5269	-156.87	-45.8386	59.3242	-198.369	30.9338	102.715	-210.576	35.4073	131.919	-176.317	49.4449	124.721	
4	0.0333333	-152.443	46.4238	150.199	-128.595	40.3169	130.934	-110.802	40.1757	111.987	-98.4515	38.2337	93.0088	-124.727	32.2713	83.9392	-107.198	10.3617	81.5648	-94.755	-14.5838	94.2311	-134.242	14.2595	76.4136	-116.206	-8.06692	78.2894	-102.053	-29.3377	83.7407	-155.007	-2.26969	77.0191	-131.91	-21.2676	77.3679	-115.007	-42.0331	85.2371	-171.761	-13.3719	81.6019	-152.35	-24.6919	81.2195	-133.726	-45.254	81.1367	-195.062	30.2766	101.999	-204.628	38.9193	129.733	-177.353	53.0531	123.614	
5	0.0416667	-156.798	59.0292	147.06	-133.902	56.7794	133.978	-115.845	58.1258	111.294	-100.438	58.7248	95.3516	-122.862	46.2177	89.0986	-99.91	22.3805	91.7221	-86.0876	6.76619	108.617	-130.132	21.7243	82.7149	-107.32	8.1478	87.1255	-88.5283	-12.9909	99.2689	-143.746	3.85628	83.2133	-118.497	-11.7201	89.1635	-100.262	-24.2912	101.841	-157.338	-7.74036	87.6364	-137.853	-16.572	91.8454	-114.578	-31.0686	101.283	-191.787	32.1345	105.36	-207.333	35.5446	129.416	-180.391	59.8383	124.02	
6	0.05	-168.471	69.3951	144.546	-144.216	72.2064	131.439	-128.313	73.6489	114.447	-114.345	75.8105	94.8221	-124.961	53.3644	88.5749	-102.061	47.8036	95.3255	-84.3933	31.1455	114.297	-127.798	31.9608	85.9162	-105.199	27.8034	92.4772	-77.3249	14.6048	107.312	-137.59	16.8428	87.9633	-110.973	6.39614	96.1523	-84.4489	2.37122	113.302	-146.267	-4.93934	93.6439	-120.358	-7.20349	102.213	-98.5565	-10.141	113.515	-190.342	27.5249	105.945	-210.979	27.1905	128.242	-193.006	56.2809	119.68	
7	0.0583333	-189.562	75.5662	141.825	-165.736	84.9537	127.652	-147.862	92.2225	103.424	-134.09	95.7123	88.0705	-138.109	68.0526	85.2673	-110.237	68.9705	95.4922	-91.0736	59.8166	110.554	-133.964	47.0535	85.3477	-110.781	47.5035	92.5586	-79.3671	49.2972	108.098	-137.218	28.633	88.671	-110.46	24.6208	98.6169	-87.1835	28.6007	111.663	-138.615	6.34463	95.5006	-119.688	11.2856	103.383	-92.6323	17.2732	116.284	-193.467	19.4713	103.453	-212.553	21.0336	124.574	-204.665	55.8824	113.387	
8	0.0666667	-205.257	72.3648	135.002	-185.893	85.6484	119.216	-172.366	92.8824	98.7854	-158.783	99.8501	77.4832	-158.949	75.2701	79.8652	-129.093	84.4248	87.4547	-106.384	89.2115	104.765	-149.779	56.0032	80.895	-120.298	62.8937	88.1754	-95.7717	72.8439	99.2793	-141.848	36.8557	86.4074	-118.133	42.6456	93.6877	-94.4475	57.316	103.644	-143.076	14.4446	95.4798	-123.583	26.3188	100.252	-97.4611	37.0014	107.068	-194.716	17.6311	102.571	-214.972	11.6708	127.909	-214.585	45.6448	113.147	
9	0.075	-221.96	64.6825	132.982	-208.891	86.2064	113.039	-199.499	95.4651	91.6565	-186.883	97.9152	72.9642	-180.613	75.6471	71.8272	-156.957	86.0458	73.0806	-131.33	98.2756	84.2995	-166.742	60.7829	72.7577	-144.354	74.7254	75.543	-119.557	88.6084	83.9702	-156.6	45.1579	78.1676	-133.726	51.8107	82.3329	-112.779	71.4319	88.9277	-154.699	23.9051	89.761	-131.768	38.1368	92.1536	-112.497	52.8198	92.4504	-200.512	10.5291	102.52	-216.758	5.81208	125.216	-227.526	37.2985	112.383	
10	0.0833333	-235.502	56.2597	127.796	-226.178	73.7993	108.092	-219.93	82.5882	82.72	-213.538	88.6628	60.3515	-199.184	63.532	63.5904	-181.287	81.7004	59.5333	-154.985	97.7575	65.194	-183.533	53.5321	63.1039	-166.001	70.2317	61.8576	-140.909	88.0244	65.243	-168.778	35.7271	71.8823	-150.79	52.7519	68.9044	-132.503	77.1215	69.103	-165.189	22.9112	83.1476	-146.37	40.1175	78.9327	-129.787	57.3877	75.0574	-205.954	2.74778	103.3	-217.855	-0.975398	127.083	-235.196	22.9333	111.757	
11	0.0916667	-241.002	40.3394	129.728	-241.11	59.3937	104.812	-239.284	64.619	78.0054	-232.889	65.1064	56.406	-217.123	45.7793	57.0858	-200.618	65.6453	47.9596	-181.059	81.1153	46.1372	-200.641	34.7133	57.9103	-181.745	54.9387	48.9728	-161.851	79.9306	45.0852	-182.893	22.1049	66.4371	-169.127	42.2032	57.606	-151.564	62.7466	51.8376	-173.346	16.0452	74.3738	-161.266	29.7695	69.4957	-142.423	48.8939	58.35	-209.48	-10.6698	103.153	-217.167	-14.816	132.489	-240.774	10.2007	113.128	
12	0.1	-245.713	21.3137	126.361	-243.626	35.0252	103.315	-250.695	41.3851	76.3038	-251.632	41.1553	53.4667	-230.59	22.3215	54.0522	-219.452	41.1453	41.0913	-201.667	57.2584	34.103	-213.575	14.5064	53.9063	-197.185	33.8113	41.0807	-181.922	53.6734	31.8126	-191.43	2.67914	61.7138	-182.66	24.6819	47.9991	-168.474	43.9727	37.9896	-179.427	-5.55989	74.4026	-170.446	10.5216	63.0344	-158.161	29.4198	44.2066	-214.678	-23.4438	104.709	-218.815	-26.9087	138.367	-242.796	-9.69684	119.691	
13	0.108333	-250.244	12.6046	131.587	-253.255	22.3621	102.342	-260.484	22.2025	76.2469	-263.223	20.9279	53.8032	-241.08	-1.80208	58.7371	-232.75	15.0736	40.3479	-214.749	36.9067	26.6575	-224.202	-5.9773	52.4008	-213.595	12.3876	37.1939	-200.755	31.1837	23.6104	-205.377	-13.6362	58.8818	-195.829	1.04237	46.0355	-185.829	20.7068	29.9081	-192.958	-20.0319	68.759	-181.335	-4.61085	54.1769	-175.123	8.58766	36.2951	-219.904	-37.4336	108.753	-222.248	-38.8767	140.073	-249.098	-24.4853	126.995	
14	0.116667	-256.287	12.3437	133.964	-257.443	21.6695	107.89	-267.524	21.9251	81.3706	-272.463	17.74	59.7228	-253.361	-6.19315	59.4668	-244.166	7.70236	40.9871	-228.351	25.8281	25.3379	-240.86	-13.8045	57.0242	-229.963	2.27733	37.3938	-212.307	21.6308	16.5455	-221.581	-22.311	59.6367	-211.216	-8.52185	41.6517	-203.211	7.62459	25.2952	-204.275	-30.7449	67.3262	-197.696	-19.6126	53.5986	-189.766	-4.63039	28.801	-228.781	-44.6531	114.321	-229.571	-38.8649	141.91	-255.962	-25.4746	128.993	
15	0.125	-250.885	24.1434	136.472	-252.472	32.9867	108.703	-266.137	37.9315	82.7886	-270.941	41.1041	65.6362	-263.837	10.5493	64.2834	-253.001	23.3043	43.2948	-230.186	32.3082	23.7438	-251.775	-4.86763	58.9259	-239.876	12.1926	35.417	-223.954	23.0951	16.8234	-237.709	-17.6463	60.0283	-227.577	-4.85032	41.3553	-214.387	7.31535	20.8558	-223.612	-29.5536	65.6273	-217.378	-16.7926	49.7731	-210.503	-4.61946	26.7634	-246.33	-34.4356	111.259	-241.376	-33.7278	142.237	-266.601	-10.8175	129.863	
16	0.133333	-233.636	38.9492	143.572	-235.288	52.8449	114.057	-243.366	62.6784	93.9878	-253.356	70.2565	72.1466	-255.613	38.6384	72.1734	-237.934	45.7006	48.3345	-221.613	48.9728	29.9086	-251.436	19.4662	64.1584	-235.562	28.5077	40.3911	-218.02	36.0624	20.1621	-245.671	6.74928	61.581	-231.857	10.6646	39.3644	-216.233	20.4525	17.4185	-238.415	-12.1143	65.1828	-229.064	-4.69502	49.2152	-219.186	4.94578	27.9495	-256.615	-15.1009	116.492	-252.304	-17.3778	141.553	-262.738	12.9168	133.561	
17	0.141667	-215.515	49.5183	147.953	-210.158	61.7787	125.044	-216.23	78.2066	103.891	-223.203	90.684	83.1073	-235.778	64.5002	79.558	-217.688	64.4028	54.708	-201.568	63.7706	36.5219	-237.04	45.3321	65.2887	-221.1	49.9443	47.3366	-199.373	50.06	22.1044	-239.276	25.568	63.0457	-226.147	27.9113	44.4252	-206.364	37.3575	24.5819	-240.411	8.11123	69.7543	-227.125	12.3625	47.713	-216.792	18.1746	30.3726	-256.398	10.2523	116.72	-251.442	-0.771708	142.055	-250.034	31.9215	139.133	
18	0.15	-201.439	57.0758	151.712	-194.012	67.691	130.642	-197.347	89.2235	106.682	-202.335	97.1158	88.7164	-216.469	76.4177	84.9438	-198.936	78.5435	61.6314	-180.829	71.11	41.6095	-222.319	61.1234	72.1464	-201.921	60.5116	48.0055	-184.266	59.4262	31.2353	-227.295	41.4411	67.9852	-210.308	41.5515	45.4611	-188.343	46.4959	26.4133	-230.837	22.7748	71.041	-215.785	29.0928	50.813	-203.949	33.4983	33.4935	-246.082	26.3751	120.202	-245.74	12.5813	146.188	-235.568	43.9539	142.262	
19	0.158333	-188.593	60.27	155.898	-176.581	76.8407	135.37	-177.61	93.089	113.598	-178.753	106.027	94.0795	-200.44	86.3573	85.3343	-184.361	87.5792	68.4395	-162.569	78.852	49.101	-206.36	73.3707	73.7151	-186.357	75.5226	56.4801	-165.796	68.9458	37.1886	-212.34	53.6189	67.9624	-196.307	54.9391	52.7112	-171.017	56.0125	33.9233	-221.248	34.3827	74.2584	-206.35	38.2595	54.5152	-187.832	41.6649	35.787	-237.813	40.298	120.568	-233.959	23.9498	149.742	-222.462	59.1104	149.348	
20	0.166667	-180.731	63.0038	159.516	-165.146	80.2014	134.532	-161.885	96.4506	112.191	-160.758	106.73	90.9921	-192.777	94.59	93.7075	-172.032	94.0017	68.6279	-148.258	84.0944	54.2584	-201.135	81.0232	78.6163	-179.548	86.4062	58.4944	-152.733	77.4505	40.7917	-205.057	63.1124	73.3016	-183.322	64.1183	50.493	-158.775	63.8502	41.3951	-211.996	44.6682	75.8567	-196.158	47.8945	56.1567	-175.952	53.262	40.3236	-227.895	47.3038	122.076	-228.636	34.2558	147.12	-217.461	65.42	146.475	
21	0.175	-178.305	71.763	158.513	-158.719	77.9428	138.236	-151.132	94.1937	113.022	-149.772	98.6246	92.5525	-187.746	100.653	93.501	-167.513	103.038	73.5549	-143.412	91.8976	61.56	-197.688	92.0536	78.7736	-176.864	90.6832	56.1198	-149.394	83.2489	45.7577	-202.849	69.1381	75.6609	-179.681	71.9526	53.0417	-152.956	67.3325	45.161	-206.528	52.1572	75.8323	-189.568	56.6203	56.1168	-170.123	57.3791	42.429	-224.901	52.3838	121.847	-227.064	35.9528	149.634	-214.694	69.3947	148.972	
